<svg width="69" height="69" fill="none" xmlns="http://www.w3.org/2000/svg">
    <path fill-rule="evenodd" clip-rule="evenodd" d="M34.38 49.64a.696.696 0 0 0 .721 0c2.446-1.47 16.507-10.29 16.507-18.816 0-5.016-4.066-9.083-9.082-9.083a9.055 9.055 0 0 0-7.222 3.59.7.7 0 0 1-1.126 0 9.057 9.057 0 0 0-7.222-3.59 9.082 9.082 0 0 0-9.083 9.083c0 8.527 14.061 17.346 16.507 18.816z" fill="#00AE3D"/>
    <path clip-rule="evenodd" d="M34.728 7.456h.025V2h-.025v5.456zM34.728 67.481h.025v-5.456h-.025v5.456zM21.088 11.118l-2.046-3.543.023-.013 2.046 3.544-.023.012zM50.418 61.92l-2.047-3.544.023-.013 2.046 3.544-.022.012zM11.106 21.11l-3.543-2.046.011-.023 3.545 2.047-.013.022zM61.907 50.44l-3.543-2.047.01-.022 3.546 2.046-.013.023zM7.575 50.44l-.013-.023 3.545-2.046.011.022-3.543 2.047zM58.375 21.11l-.012-.022 3.545-2.047.01.023-3.543 2.046zM19.064 61.92l-.023-.013 2.047-3.544.022.013-2.046 3.543zM48.394 11.118l-.023-.012 2.046-3.544.023.013-2.046 3.543zM2 34.753h5.456v-.025H2v.025zM62.025 34.753h5.456v-.025h-5.456v.025z" stroke="#000" stroke-width="2.2" stroke-linecap="round"/>
</svg>
